# xmcd CD database file
#
# Track frame offsets:
#	150
#	14055
#	19779
#	25849
#	42764
#	56798
#	75255
#	91904
#	98003
#	106460
#	123883
#	129618
#	138075
#	144549
#	153175
#	165527
#	180731
#	191933
#
# Disc length: 2763 seconds
#
# Revision: 0
# Processed by: cddbd v1.5.1PL0 Copyright (c) Steve Scherf et al.
# Submitted via: CDex 1.50beta9
#
DISCID=e50ac912
DTITLE=Marcel Azzola - Marcel Azzola CD5
DYEAR=2005
DGENRE=Instrumental
TTITLE0=Guillaume Tell(Final)
TTITLE1=Prelude N'5 en re majeur
TTITLE2=Le Vol Du Bourdon
TTITLE3=Andaluza extrait des -Danses espagnoles-
TTITLE4=La Danza
TTITLE5=Toccata en re mineur
TTITLE6=Danse Rituelle Du Feu
TTITLE7=Badinerie Suite en si mineur
TTITLE8=Tarentelle Accordeon
TTITLE9=Sevilla extrait de la suite espagnole
TTITLE10=Prelude N'3 en Do diese Majeur
TTITLE11=La Fileuse
TTITLE12=Etude en Fa mineur opus 25
TTITLE13=Gioconda final Danse des heures
TTITLE14=Cavaliera Rusticana Intermezzo
TTITLE15=Danse Espagnole De -La Vie Brevie-
TTITLE16=Fantasie en la mineur ler mouvement
TTITLE17=Concerto Italien 3eme mouvement
EXTD=YEAR: 2005
EXTT0=
EXTT1=
EXTT2=
EXTT3=
EXTT4=
EXTT5=
EXTT6=
EXTT7=
EXTT8=
EXTT9=
EXTT10=
EXTT11=
EXTT12=
EXTT13=
EXTT14=
EXTT15=
EXTT16=
EXTT17=
PLAYORDER=
